<svg xmlns="http://www.w3.org/2000/svg" width="60" height="30" viewBox="0 0 60 30"><defs><style>.a{fill:#31a8e0;}.b,.d{fill:#fff;}.c{fill:none;stroke:#000;opacity:0.1;}.d{font-size:14px;font-family:Roboto-Regular, Roboto;}</style></defs><path class="a" d="M4,0H30a0,0,0,0,1,0,0V30a0,0,0,0,1,0,0H4a4,4,0,0,1-4-4V4A4,4,0,0,1,4,0Z"/><path class="b" d="M67.54,99.576l-20.061,7.818a.732.732,0,0,0,.058,1.383l5.1,1.505,1.9,6.037a.875.875,0,0,0,1.46.349l2.636-2.691,5.171,3.8a1.079,1.079,0,0,0,1.695-.649l3.425-16.375A1.032,1.032,0,0,0,67.54,99.576Zm-2.515,3.634-9.318,8.24a.5.5,0,0,0-.166.319l-.359,3.189a.1.1,0,0,1-.188.018l-1.476-4.756a.5.5,0,0,1,.214-.574l11-6.825A.243.243,0,0,1,65.025,103.21Z" transform="translate(-43.918 -92.954)"/><path class="a" d="M0,0H26a4,4,0,0,1,4,4V26a4,4,0,0,1-4,4H0a0,0,0,0,1,0,0V0A0,0,0,0,1,0,0Z" transform="translate(30)"/><line class="c" y2="30" transform="translate(30.5)"/><text class="d" transform="translate(37 20)"><tspan x="0" y="0">54</tspan></text></svg>