<svg xmlns="http://www.w3.org/2000/svg" width="60" height="30" viewBox="0 0 60 30"><defs><style>.a{fill:#50abf1;}.b,.d{fill:#fff;}.c{fill:none;stroke:#000;opacity:0.1;}.d{font-size:14px;font-family:Roboto-Regular, Roboto;}</style></defs><path class="a" d="M4,0H30a0,0,0,0,1,0,0V30a0,0,0,0,1,0,0H4a4,4,0,0,1-4-4V4A4,4,0,0,1,4,0Z"/><path class="b" d="M60.359,111.957a12.916,12.916,0,0,0,19.818-10.915q0-.267-.011-.531a10.148,10.148,0,0,0,2.245-2.3,10.475,10.475,0,0,1-2.564.665h-.008l.007,0a4.8,4.8,0,0,0,1.972-2.515,15.733,15.733,0,0,1-2.2.917c-.212.071-.435.14-.664.2a4.531,4.531,0,0,0-7.722,4.122,13.646,13.646,0,0,1-9.3-4.7s-2.166,2.957,1.291,6a4.656,4.656,0,0,1-1.957-.583,4.306,4.306,0,0,0,3.582,4.5,4.146,4.146,0,0,1-2,.084,4.467,4.467,0,0,0,4.165,3.165,8.7,8.7,0,0,1-6.654,1.9Z" transform="translate(-56.385 -89.719)"/><path class="a" d="M0,0H26a4,4,0,0,1,4,4V26a4,4,0,0,1-4,4H0a0,0,0,0,1,0,0V0A0,0,0,0,1,0,0Z" transform="translate(30)"/><line class="c" y2="30" transform="translate(30.5)"/><text class="d" transform="translate(37 20)"><tspan x="0" y="0">12</tspan></text></svg>