<svg xmlns="http://www.w3.org/2000/svg" width="60" height="30" viewBox="0 0 60 30"><defs><style>.a{fill:#1bd741;}.b,.d{fill:#fff;}.c{fill:none;stroke:#000;opacity:0.1;}.d{font-size:14px;font-family:Roboto-Regular, Roboto;}</style></defs><path class="a" d="M4,0H30a0,0,0,0,1,0,0V30a0,0,0,0,1,0,0H4a4,4,0,0,1-4-4V4A4,4,0,0,1,4,0Z"/><g transform="translate(4.509 4.497)"><path class="b" d="M68.494,89.326l1.469-5.219a10.473,10.473,0,1,1,3.913,3.834Zm5.657-3.292.321.2a8.7,8.7,0,1,0-2.8-2.737l.216.336-.846,3.006Z" transform="translate(-68.494 -68.321)"/><path class="b" d="M149.952,152.864l-.68-.037a.822.822,0,0,0-.584.2,3.1,3.1,0,0,0-1.019,1.561,4.731,4.731,0,0,0,1.1,3.708,11.032,11.032,0,0,0,5.946,4.323,2.9,2.9,0,0,0,2.454-.3,2.195,2.195,0,0,0,.955-1.393l.109-.507a.352.352,0,0,0-.2-.394l-2.3-1.059a.352.352,0,0,0-.426.1l-.9,1.169a.258.258,0,0,1-.29.086,7.064,7.064,0,0,1-3.822-3.271.261.261,0,0,1,.033-.291l.862-1a.352.352,0,0,0,.057-.369l-.99-2.317A.352.352,0,0,0,149.952,152.864Z" transform="translate(-142.391 -147.263)"/></g><path class="a" d="M0,0H26a4,4,0,0,1,4,4V26a4,4,0,0,1-4,4H0a0,0,0,0,1,0,0V0A0,0,0,0,1,0,0Z" transform="translate(30)"/><line class="c" y2="30" transform="translate(30.5)"/><text class="d" transform="translate(45 20)"><tspan x="-3.931" y="0">5</tspan></text></svg>