<svg xmlns="http://www.w3.org/2000/svg" width="60" height="30" viewBox="0 0 60 30"><defs><style>.a{fill:#44678d;}.b,.d{fill:#fff;}.c{fill:none;stroke:#000;opacity:0.1;}.d{font-size:14px;font-family:Roboto-Regular, Roboto;}</style></defs><path class="a" d="M4,0H30a0,0,0,0,1,0,0V30a0,0,0,0,1,0,0H4a4,4,0,0,1-4-4V4A4,4,0,0,1,4,0Z"/><path class="b" d="M37.9,117.018a19.713,19.713,0,0,0,2.83,4.952,2.643,2.643,0,0,0,.571.523.433.433,0,0,0,.726-.216,6.2,6.2,0,0,0,.262-1.511c.02-1.017,0-1.683-.058-2.7a1.319,1.319,0,0,0-1.224-1.394c-.3-.053-.323-.3-.133-.539a1.886,1.886,0,0,1,1.543-.618c.968-.052,1.939-.01,2.908,0a5.787,5.787,0,0,1,1.18.12,1.079,1.079,0,0,1,.862.961,4.1,4.1,0,0,1,.059.776c-.025,1.11-.079,2.219-.091,3.329a5.8,5.8,0,0,0,.12,1.306c.13.591.533.739.944.312a14.465,14.465,0,0,0,1.416-1.772,17.687,17.687,0,0,0,1.878-3.641c.261-.658.461-.8,1.169-.8q2,0,3.993,0a2.4,2.4,0,0,1,.706.094.609.609,0,0,1,.42.784,6.619,6.619,0,0,1-1.179,2.339c-.814,1.15-1.668,2.272-2.5,3.408a4.287,4.287,0,0,0-.287.456.941.941,0,0,0,.165,1.348c.724.747,1.5,1.445,2.2,2.212a13.042,13.042,0,0,1,1.384,1.8,1.019,1.019,0,0,1-.759,1.7c-.6.085-3.531,0-3.683,0a2.869,2.869,0,0,1-2.035-.812c-.619-.6-1.181-1.249-1.775-1.871a4.96,4.96,0,0,0-.576-.524c-.486-.371-.963-.288-1.19.282a10.978,10.978,0,0,0-.369,1.887,1,1,0,0,1-1.051.977,9.87,9.87,0,0,1-5.339-1.005,11.284,11.284,0,0,1-3.542-3.095,37.4,37.4,0,0,1-3.924-6.445c-.058-.115-1.2-2.544-1.23-2.659a.683.683,0,0,1,.318-.877c.2-.079,3.966,0,4.029,0A1.31,1.31,0,0,1,37.9,117.018Z" transform="translate(-30.131 -107.888)"/><path class="a" d="M0,0H26a4,4,0,0,1,4,4V26a4,4,0,0,1-4,4H0a0,0,0,0,1,0,0V0A0,0,0,0,1,0,0Z" transform="translate(30)"/><line class="c" y2="30" transform="translate(30.5)"/><text class="d" transform="translate(37 20)"><tspan x="0" y="0">12</tspan></text></svg>