<svg xmlns="http://www.w3.org/2000/svg" width="46" height="26" viewBox="0 0 46 26"><defs><style>.a{fill:#56b46f;}.b{fill:#4d8157;}.c{fill:#eaead7;}</style></defs><g transform="translate(0 -14.4)"><rect class="a" width="46" height="26" transform="translate(0 14.4)"/><path class="b" d="M36.357,29.563A10.679,10.679,0,1,1,25.679,19,10.621,10.621,0,0,1,36.357,29.563" transform="translate(-2.679 -2.163)"/><path class="c" d="M18.22,38.875A10.482,10.482,0,0,1,18.22,21H9.908c.012.134.021.269.021.406a4.494,4.494,0,0,1-4.518,4.469c-.139,0-.275-.008-.411-.02V34.02c.136-.012.272-.02.411-.02a4.494,4.494,0,0,1,4.518,4.469c0,.137-.008.272-.021.406Z" transform="translate(-0.893 -2.538)"/><path class="c" d="M47.715,25.875A4.493,4.493,0,0,1,43.2,21.406c0-.137.008-.272.021-.406H34.906a10.482,10.482,0,0,1,0,17.875h8.312c-.012-.134-.021-.269-.021-.406A4.493,4.493,0,0,1,47.715,34c.139,0,.275.008.411.02V25.855c-.136.012-.272.02-.411.02" transform="translate(-6.233 -2.538)"/><path class="c" d="M5.054,23.063a2.031,2.031,0,1,1,2.054-2.031,2.044,2.044,0,0,1-2.054,2.031" transform="translate(-0.536 -2.163)"/><path class="c" d="M50.054,23.063a2.031,2.031,0,1,1,2.054-2.031,2.044,2.044,0,0,1-2.054,2.031" transform="translate(-8.571 -2.163)"/><path class="c" d="M5.054,44.063a2.031,2.031,0,1,1,2.054-2.031,2.044,2.044,0,0,1-2.054,2.031" transform="translate(-0.536 -6.1)"/><path class="c" d="M50.054,44.063a2.031,2.031,0,1,1,2.054-2.031,2.044,2.044,0,0,1-2.054,2.031" transform="translate(-8.571 -6.1)"/><path class="c" d="M31.278,33.079a1.416,1.416,0,0,0,1.012-1.345v-.707a1.411,1.411,0,0,0-.771-1.247c-.315-2.66-2.093-3.737-4.951-3.737-.135,0-.268,0-.4.015a4.331,4.331,0,0,1-2.762-.643,3.577,3.577,0,0,1-.817-.712.143.143,0,0,0-.255.1c.029.247.071.536.135.852.236,1.174.094,1-.365,2.111a7.267,7.267,0,0,0-.494,2.013,1.413,1.413,0,0,0-.766,1.245v.707a1.417,1.417,0,0,0,1.012,1.345,4.486,4.486,0,0,0,2.564,3.165v.81a.544.544,0,0,1-.306.487l-2.761,1.346a2.3,2.3,0,0,0-.612.5,10.755,10.755,0,0,0,11.724.117,2.336,2.336,0,0,0-.761-.6l-2.693-1.362a.542.542,0,0,1-.3-.483v-.816a4.486,4.486,0,0,0,2.564-3.165" transform="translate(-3.704 -3.222)"/></g></svg>